<svg width="152" height="32" viewBox="0 0 152 32" fill="none" xmlns="http://www.w3.org/2000/svg">
<path fill-rule="evenodd" clip-rule="evenodd" d="M7.96877 17.3409L3.3574 28.1106H0L5.05633 16.5968C3.87044 15.9646 2.87624 15.0022 2.18433 13.8166C1.38984 12.2957 1.01641 10.5749 1.10565 8.84599C1.10565 7.37165 1.3079 6.0939 1.71241 4.9706C2.05559 3.9551 2.61097 3.03159 3.33847 2.26672C4.06596 1.50185 4.94744 0.914687 5.91928 0.547609C6.90357 0.182536 7.90136 0 8.95307 0H13.2948V28.1106H10.3823V17.3409H7.95529H7.96877ZM10.3823 2.55551H8.83172C8.25193 2.55551 7.68562 2.66784 7.1328 2.8925C6.59345 3.11716 6.09456 3.45415 5.66309 3.94559C5.23162 4.43703 4.89453 5.06889 4.62486 5.88328C4.35518 6.68363 4.22035 7.66652 4.22035 8.84599C4.22035 9.96929 4.35519 10.91 4.58441 11.6823C4.82711 12.4405 5.15071 13.0584 5.5687 13.5217C5.97321 13.9991 6.4721 14.3361 7.05189 14.5327C7.60472 14.7293 8.21148 14.8135 8.83172 14.8135H10.3823V2.55551V2.55551ZM42.4327 32H39.7899V28.1106H31.6324V32H28.9896V25.5972H30.1627C30.5942 24.5441 30.9313 23.3927 31.1874 22.115C31.4301 20.8513 31.6324 19.5314 31.7672 18.1834C31.9021 16.8355 31.9965 15.4594 32.0369 14.0553C32.0774 12.6512 32.0908 11.3032 32.0908 9.98333V8.31242H40.9226V25.5832H42.4327V31.986V32ZM55.2421 26.7767C53.9105 27.8756 52.248 28.4477 50.5498 28.3914C48.5947 28.3914 47.0441 27.591 45.9115 26.0044C44.7789 24.4177 44.2125 22.1009 44.2125 19.0259C44.2125 17.4252 44.3204 15.9649 44.5361 14.631C44.7083 13.4251 45.049 12.2519 45.5474 11.1487C46.0193 10.1659 46.6261 9.39359 47.3407 8.84599C48.0406 8.37167 48.8454 8.09171 49.6785 8.03272C50.5116 7.97374 51.3453 8.13769 52.1004 8.509C52.7611 8.84599 53.3139 9.36551 53.7589 10.1097C54.2173 10.8398 54.5679 11.7946 54.8241 12.9601C55.0668 14.1255 55.2016 15.5437 55.2016 17.2146V18.8995H47.2733C47.2733 21.1602 47.5699 22.8732 48.1497 24.0246C48.743 25.176 49.6329 25.7516 50.8195 25.7516C51.642 25.7516 52.3836 25.6112 53.0308 25.3023C53.566 25.0618 54.0765 24.7654 54.5544 24.4177L55.2286 26.7767H55.2421ZM27.2907 8.29838V28.1106H24.3917V19.2225H20.0096V28.1106H17.0702V8.29838H20.0096V16.7091H24.3917V8.28434H27.2907V8.29838ZM61.1614 18.2396V28.1106H58.2219V8.29838H61.1614V17.4533L65.7323 8.29838H68.7121L63.9929 17.6077L69.3863 28.1106H66.1772L61.1614 18.2396ZM76.3034 28.3914C74.2674 28.3914 72.6628 27.5489 71.5032 25.8499C70.3437 24.165 69.7639 21.6095 69.7639 18.1975C69.7639 16.6529 69.9122 15.2488 70.2088 13.9851C70.492 12.7354 70.9234 11.6683 71.4898 10.7977C72.0561 9.91312 72.7572 9.23914 73.6067 8.7477C74.506 8.24773 75.5134 7.99633 76.5326 8.01755C77.3821 8.01755 78.0697 8.11584 78.6091 8.31242C79.1349 8.509 79.6068 8.7477 80.0383 9.04256L79.6338 11.9491C79.2293 11.584 78.7439 11.2611 78.2046 10.9943C77.6652 10.7135 77.0989 10.5731 76.4921 10.5731C75.4269 10.5731 74.564 11.1909 73.8898 12.4265C73.2156 13.6621 72.8651 15.5296 72.8651 18.043C72.8651 20.5423 73.1482 22.452 73.7145 23.7999C74.2808 25.1619 75.1708 25.8359 76.3708 25.8359C77.1124 25.8359 77.7326 25.6955 78.2585 25.4568C78.7978 25.204 79.2293 24.9232 79.5799 24.6143L80.2541 26.889C79.1567 27.8817 77.7431 28.4124 76.2899 28.3774L76.3034 28.3914ZM38.0101 10.7696H34.7336V11.1207C34.7336 12.1738 34.7201 13.3251 34.6797 14.5608C34.5901 17.1042 34.3288 19.6379 33.8976 22.143C33.6819 23.4068 33.3583 24.5441 32.9538 25.5972H38.0236V10.7696H38.0101ZM49.943 10.5309C49.0396 10.5309 48.4059 11.0645 48.0284 12.1316C47.6508 13.1847 47.4081 14.6169 47.3003 16.4002H52.1813C52.1813 15.5577 52.1409 14.7714 52.06 14.0553C52.0041 13.422 51.8866 12.7963 51.7094 12.1878C51.5853 11.7287 51.3536 11.309 51.0352 10.9662C50.7386 10.6854 50.3745 10.545 49.9565 10.545L49.943 10.5309ZM91.2027 13.283V28.1106H89.315V0H91.2027V13.1286L99.1175 0H100.924L93.1578 12.9741L101.585 28.1106H99.4681L91.2027 13.283V13.283ZM107.828 27.0154C108.704 27.0154 109.446 26.6362 110.066 25.864C110.713 25.0498 111.207 24.1162 111.522 23.1119V17.6498H109.486C107.895 17.6498 106.736 18.043 105.981 18.8293C105.226 19.6156 104.848 20.8793 104.848 22.6064C104.848 24.0105 105.118 25.1057 105.657 25.864C106.196 26.6362 106.925 27.0154 107.814 27.0154H107.828ZM112.048 28.1106L111.806 27.1136C111.7 26.5577 111.632 25.9946 111.603 25.4287C111.145 26.3835 110.579 27.1277 109.904 27.6753C109.23 28.2369 108.408 28.5037 107.45 28.5037C106.169 28.5037 105.118 27.9982 104.309 26.9873C103.5 25.9763 103.095 24.5722 103.095 22.7749C103.095 20.6406 103.635 19.0399 104.727 17.9447C105.805 16.8635 107.383 16.3159 109.446 16.3159H111.522V13.8447C111.522 12.3142 111.253 11.219 110.727 10.5309C110.201 9.85695 109.405 9.51997 108.354 9.51997C107.568 9.51596 106.793 9.71064 106.096 10.0873C105.398 10.4639 104.799 11.0113 104.349 11.6823L103.864 9.91312C104.241 9.37955 104.808 8.93023 105.576 8.509C106.443 8.08195 107.395 7.87504 108.354 7.90522C109.945 7.90522 111.158 8.36858 111.994 9.30935C112.844 10.222 113.262 11.6823 113.262 13.6481V24.4599C113.262 25.1338 113.302 25.8219 113.37 26.5239C113.451 27.226 113.545 27.7455 113.68 28.1106H112.062H112.048ZM122.66 26.889C123.267 26.889 123.806 26.7907 124.278 26.5801C124.736 26.3695 125.127 26.1167 125.451 25.8359C125.828 25.5551 126.166 25.19 126.435 24.7688L127.002 26.3133C126.387 27.1717 125.543 27.8215 124.574 28.1808C124.008 28.3914 123.361 28.5037 122.619 28.5037C121.713 28.5233 120.82 28.2819 120.037 27.8062C119.254 27.3305 118.613 26.639 118.183 25.8078C117.145 24.0105 116.619 21.4971 116.619 18.2396C116.619 14.968 117.132 12.4265 118.17 10.6152C118.603 9.7738 119.252 9.07461 120.045 8.59596C120.838 8.11731 121.744 7.87813 122.66 7.90522C123.441 7.86828 124.221 8.0158 124.94 8.33675C125.659 8.65771 126.299 9.14379 126.813 9.75867L126.327 11.7244C125.896 11.1066 125.383 10.6011 124.777 10.1378C124.156 9.68951 123.415 9.4584 122.66 9.47784C121.204 9.47784 120.125 10.2361 119.424 11.7525C118.75 13.269 118.399 15.4313 118.399 18.2396C118.301 20.415 118.645 22.5874 119.41 24.6143C120.084 26.1308 121.177 26.889 122.66 26.889ZM135.2 26.889C135.806 26.889 136.332 26.7907 136.804 26.5801C137.262 26.3695 137.667 26.1167 137.991 25.8359C138.368 25.5551 138.692 25.19 138.975 24.7688L139.541 26.3133C138.927 27.1717 138.083 27.8215 137.114 28.1808C136.534 28.3914 135.901 28.5037 135.159 28.5037C134.253 28.5233 133.359 28.2819 132.577 27.8062C131.794 27.3305 131.152 26.639 130.723 25.8078C129.685 24.0105 129.159 21.4971 129.159 18.2396C129.159 14.968 129.671 12.4265 130.709 10.6152C131.142 9.7738 131.792 9.07461 132.585 8.59596C133.378 8.11731 134.283 7.87813 135.2 7.90522C135.981 7.86828 136.761 8.0158 137.48 8.33675C138.199 8.65771 138.839 9.14379 139.352 9.75867L138.854 11.7244C138.436 11.1066 137.91 10.6011 137.316 10.1378C136.696 9.68951 135.955 9.4584 135.2 9.47784C133.743 9.47784 132.665 10.2361 131.963 11.7525C131.289 13.269 130.925 15.4313 130.925 18.2396C130.831 20.416 131.18 22.5884 131.95 24.6143C132.624 26.1308 133.703 26.889 135.186 26.889H135.2ZM146.148 27.0154C147.025 27.0154 147.766 26.6362 148.386 25.864C149.033 25.0498 149.527 24.1162 149.843 23.1119V17.6498H147.807C146.216 17.6498 145.056 18.043 144.301 18.8293C143.546 19.6156 143.168 20.8793 143.168 22.6064C143.168 24.0105 143.438 25.1057 143.977 25.864C144.517 26.6362 145.245 27.0154 146.135 27.0154H146.148ZM150.368 28.1106L150.126 27.1136C150.02 26.5577 149.953 25.9946 149.924 25.4287C149.465 26.3835 148.899 27.1277 148.225 27.6753C147.55 28.2369 146.728 28.5037 145.771 28.5037C144.49 28.5037 143.438 27.9982 142.629 26.9873C141.82 25.9763 141.415 24.5722 141.415 22.7749C141.415 20.6406 141.955 19.0399 143.047 17.9447C144.126 16.8635 145.703 16.3159 147.766 16.3159H149.843V13.8447C149.843 12.3142 149.573 11.219 149.047 10.5309C148.521 9.85695 147.726 9.51997 146.674 9.51997C145.888 9.51596 145.113 9.71064 144.416 10.0873C143.718 10.4639 143.119 11.0113 142.669 11.6823L142.184 9.91312C142.562 9.37955 143.128 8.93023 143.896 8.509C144.763 8.08195 145.715 7.87504 146.674 7.90522C148.265 7.90522 149.479 8.36858 150.315 9.30935C151.164 10.222 151.582 11.6823 151.582 13.6481V24.4599C151.582 25.1338 151.622 25.8219 151.69 26.5239C151.771 27.226 151.865 27.7455 152 28.1106H150.382H150.368Z" fill="#F7FCFD"/>
</svg>
